<svg xmlns="http://www.w3.org/2000/svg" viewBox="0 0 800 500" role="img" aria-labelledby="title desc"><title id="title">Fixenator</title><desc id="desc">Excel and data tasks, from request to results.</desc><rect width="800" height="500" fill="#101012"/><rect x="64" y="58" width="672" height="384" rx="22" fill="#19191d" stroke="#38383e"/><text x="106" y="126" font-family="Arial,sans-serif" font-size="42" font-weight="700" fill="#fff">Fixenator<tspan fill="#ff6a00">.</tspan></text><text x="106" y="166" font-family="Arial,sans-serif" font-size="18" fill="#b4b4bc">EXCEL &amp; DATA TASKS</text><g fill="none" stroke="#3c3c43" stroke-width="2"><rect x="106" y="202" width="330" height="162" rx="8"/><path d="M106 244h330M106 284h330M106 324h330M216 202v162M326 202v162"/></g><g fill="#ff6a00"><rect x="116" y="212" width="90" height="22" rx="4"/><rect x="226" y="212" width="90" height="22" rx="4"/><rect x="336" y="212" width="90" height="22" rx="4"/></g><g fill="#72727d"><rect x="122" y="258" width="70" height="8" rx="4"/><rect x="232" y="298" width="70" height="8" rx="4"/><rect x="342" y="338" width="70" height="8" rx="4"/></g><circle cx="565" cy="280" r="58" fill="#ff6a00"/><path d="m538 280 18 18 35-37" fill="none" stroke="#fff" stroke-width="10" stroke-linecap="round" stroke-linejoin="round"/><text x="106" y="408" font-family="Arial,sans-serif" font-size="19" fill="#e9e9eb">Send us the task. We’ll handle the rest.</text></svg>